<?xml version="1.0" encoding="UTF-8" standalone="no"?>
<!-- Created with Inkscape (http://www.inkscape.org/) -->

<svg
   xmlns:dc="http://purl.org/dc/elements/1.1/"
   xmlns:cc="http://creativecommons.org/ns#"
   xmlns:rdf="http://www.w3.org/1999/02/22-rdf-syntax-ns#"
   xmlns:svg="http://www.w3.org/2000/svg"
   xmlns="http://www.w3.org/2000/svg"
   xmlns:sodipodi="http://sodipodi.sourceforge.net/DTD/sodipodi-0.dtd"
   xmlns:inkscape="http://www.inkscape.org/namespaces/inkscape"
   width="200"
   height="200"
   id="svg2"
   version="1.1"
   inkscape:version="0.48.3.1 r9886"
   sodipodi:docname="Новый документ 1">
  <defs
     id="defs4" />
  <sodipodi:namedview
     id="base"
     pagecolor="#ffffff"
     bordercolor="#666666"
     borderopacity="1.0"
     inkscape:pageopacity="1"
     inkscape:pageshadow="2"
     inkscape:zoom="1.979899"
     inkscape:cx="79.383936"
     inkscape:cy="75.660446"
     inkscape:document-units="px"
     inkscape:current-layer="layer1"
     showgrid="false"
     inkscape:snap-bbox="true"
     inkscape:bbox-paths="true"
     inkscape:bbox-nodes="true"
     inkscape:snap-bbox-edge-midpoints="true"
     inkscape:snap-bbox-midpoints="true"
     inkscape:object-paths="true"
     inkscape:snap-intersection-paths="true"
     inkscape:object-nodes="true"
     inkscape:snap-smooth-nodes="true"
     inkscape:snap-midpoints="true"
     inkscape:snap-object-midpoints="true"
     inkscape:snap-center="true"
     inkscape:window-width="1280"
     inkscape:window-height="1005"
     inkscape:window-x="0"
     inkscape:window-y="1"
     inkscape:window-maximized="1" />
  <metadata
     id="metadata7">
    <rdf:RDF>
      <cc:Work
         rdf:about="">
        <dc:format>image/svg+xml</dc:format>
        <dc:type
           rdf:resource="http://purl.org/dc/dcmitype/StillImage" />
        <dc:title></dc:title>
      </cc:Work>
    </rdf:RDF>
  </metadata>
  <g
     inkscape:label="Layer 1"
     inkscape:groupmode="layer"
     id="layer1"
     transform="translate(0,-852.36218)">
    <g
       id="g3767"
       transform="matrix(0.19742806,0,0,0.19742806,233.68701,868.12991)">
      <path
         transform="translate(0,211.42857)"
         sodipodi:type="arc"
         style="opacity:0.45098039;fill:#800080;fill-opacity:1;stroke:#ffffff;stroke-width:11;stroke-miterlimit:4;stroke-opacity:1;stroke-dasharray:none"
         id="path2987"
         sodipodi:cx="-677.14288"
         sodipodi:cy="215.21933"
         sodipodi:rx="211.42857"
         sodipodi:ry="211.42857"
         d="m -465.71431,215.21933 c 0,116.76878 -94.6598,211.42857 -211.42857,211.42857 -116.76878,0 -211.42858,-94.65979 -211.42858,-211.42857 0,-116.768777 94.6598,-211.4285738 211.42858,-211.4285738 116.76877,0 211.42857,94.6597968 211.42857,211.4285738 z" />
      <path
         d="m -465.71431,215.21933 c 0,116.76878 -94.6598,211.42857 -211.42857,211.42857 -116.76878,0 -211.42858,-94.65979 -211.42858,-211.42857 0,-116.768777 94.6598,-211.4285738 211.42858,-211.4285738 116.76877,0 211.42857,94.6597968 211.42857,211.4285738 z"
         sodipodi:ry="211.42857"
         sodipodi:rx="211.42857"
         sodipodi:cy="215.21933"
         sodipodi:cx="-677.14288"
         id="path2985"
         style="opacity:0.45098039;fill:#00ffff;fill-opacity:1;stroke:#ffffff;stroke-width:11;stroke-miterlimit:4;stroke-opacity:1;stroke-dasharray:none"
         sodipodi:type="arc" />
      <path
         d="m -465.71431,215.21933 c 0,116.76878 -94.6598,211.42857 -211.42857,211.42857 -116.76878,0 -211.42858,-94.65979 -211.42858,-211.42857 0,-116.768777 94.6598,-211.4285738 211.42858,-211.4285738 116.76877,0 211.42857,94.6597968 211.42857,211.4285738 z"
         sodipodi:ry="211.42857"
         sodipodi:rx="211.42857"
         sodipodi:cy="215.21933"
         sodipodi:cx="-677.14288"
         id="path2997"
         style="opacity:0.45098039;fill:#ff0000;fill-opacity:1;stroke:#ffffff;stroke-width:11;stroke-miterlimit:4;stroke-opacity:1;stroke-dasharray:none"
         sodipodi:type="arc"
         transform="translate(-183.1432,105.71429)" />
      <path
         d="m -465.71431,215.21933 c 0,116.76878 -94.6598,211.42857 -211.42857,211.42857 -116.76878,0 -211.42858,-94.65979 -211.42858,-211.42857 0,-116.768777 94.6598,-211.4285738 211.42858,-211.4285738 116.76877,0 211.42857,94.6597968 211.42857,211.4285738 z"
         sodipodi:ry="211.42857"
         sodipodi:rx="211.42857"
         sodipodi:cy="215.21933"
         sodipodi:cx="-677.14288"
         id="path2993"
         style="opacity:0.45098039;fill:#ff9955;fill-opacity:1;stroke:#ffffff;stroke-width:11;stroke-miterlimit:4;stroke-opacity:1;stroke-dasharray:none"
         sodipodi:type="arc"
         transform="translate(-183.1432,317.14286)" />
      <path
         d="m -465.71431,215.21933 c 0,116.76878 -94.6598,211.42857 -211.42857,211.42857 -116.76878,0 -211.42858,-94.65979 -211.42858,-211.42857 0,-116.768777 94.6598,-211.4285738 211.42858,-211.4285738 116.76877,0 211.42857,94.6597968 211.42857,211.4285738 z"
         sodipodi:ry="211.42857"
         sodipodi:rx="211.42857"
         sodipodi:cy="215.21933"
         sodipodi:cx="-677.14288"
         id="path2989"
         style="opacity:0.45098039;fill:#ffff00;fill-opacity:1;stroke:#ffffff;stroke-width:11;stroke-miterlimit:4;stroke-opacity:1;stroke-dasharray:none"
         sodipodi:type="arc"
         transform="translate(0,422.85714)" />
      <path
         transform="translate(183.1432,105.71429)"
         sodipodi:type="arc"
         style="opacity:0.45098039;fill:#0000ff;fill-opacity:1;stroke:#ffffff;stroke-width:11;stroke-miterlimit:4;stroke-opacity:1;stroke-dasharray:none"
         id="path2995"
         sodipodi:cx="-677.14288"
         sodipodi:cy="215.21933"
         sodipodi:rx="211.42857"
         sodipodi:ry="211.42857"
         d="m -465.71431,215.21933 c 0,116.76878 -94.6598,211.42857 -211.42857,211.42857 -116.76878,0 -211.42858,-94.65979 -211.42858,-211.42857 0,-116.768777 94.6598,-211.4285738 211.42858,-211.4285738 116.76877,0 211.42857,94.6597968 211.42857,211.4285738 z" />
      <path
         transform="translate(183.1432,317.14286)"
         sodipodi:type="arc"
         style="opacity:0.45098039;fill:#008000;fill-opacity:1;stroke:#ffffff;stroke-width:11;stroke-miterlimit:4;stroke-opacity:1;stroke-dasharray:none"
         id="path2991"
         sodipodi:cx="-677.14288"
         sodipodi:cy="215.21933"
         sodipodi:rx="211.42857"
         sodipodi:ry="211.42857"
         d="m -465.71431,215.21933 c 0,116.76878 -94.6598,211.42857 -211.42857,211.42857 -116.76878,0 -211.42858,-94.65979 -211.42858,-211.42857 0,-116.768777 94.6598,-211.4285738 211.42858,-211.4285738 116.76877,0 211.42857,94.6597968 211.42857,211.4285738 z" />
    </g>
  </g>
</svg>
